<svg xmlns="http://www.w3.org/2000/svg" xmlns:xlink="http://www.w3.org/1999/xlink" width="793.979" height="787.99" viewBox="0 0 793.979 787.99">
  <defs>
    <linearGradient id="linear-gradient" x1="0.5" y1="1" x2="0.5" gradientUnits="objectBoundingBox">
      <stop offset="0" stop-color="gray" stop-opacity="0.251"/>
      <stop offset="0.54" stop-color="gray" stop-opacity="0.122"/>
      <stop offset="1" stop-color="gray" stop-opacity="0.102"/>
    </linearGradient>
  </defs>
  <g id="undrawPass" transform="translate(-144.7 -23.83)">
    <path id="Path_125" data-name="Path 125" d="M990.13,855.4S945.57,611,860.6,571.34c-72-33.63-149.86-56.3-172-62.45A95.61,95.61,0,0,0,677.19,494c-30.26-31.59-48.44-31-51.38-30.61a153.839,153.839,0,0,1-3-19c-.09-1-.18-1.93-.26-2.92l.26-.13q-.27-2.835-.48-5.85a150.6,150.6,0,0,0,33.79-24.61c.13.43.24.86.38,1.3q32.71-27.65,64.07-56.8c6-5.61,12.3-11.7,14.34-19.61a28.778,28.778,0,0,0,.75-8.32c.27-6-1.15-12.13-1.39-18.21a20.845,20.845,0,0,1,.24-2.88c1.4-9.95,8.32-18.12,14-26.47a124.82,124.82,0,0,0,21.23-71.46,121,121,0,0,0-5-36c-4.43-14.82-13.65-30.39-29-33.63-5.94-1.25-12.11-.47-18.17-.86-25.09-1.6-43.87-22-63.88-36.95a168.61,168.61,0,0,0-83.58-32.44c-9.45-1-19.21-1.07-28.2,1.93-20.19,6.72-32.45,27.47-51.9,36-14.38,6.34-31,5.31-46,10.07-22.33,7.1-41.28,30-41.78,53.53v3.05c-.25,11.89,4,24,4.34,36.17q0,1.65.05,3.31c-.11,13.14-1.68,26.32-6.47,38.67-2.58,6.65-5.9,14.35-5.36,21-.3,4.07.49,7.89,3.32,11l4.83-4.26a146,146,0,0,0-2.43,26.58c0,44.94,20.44,85.18,52.68,112.26q.28,4.49.54,9.62c.76,14.82,1.36,33.41,1.19,53.67L407.76,524.5l-121.24,55s-110.88,23.42-87,179.19l11.4,96.72H312.15l-.23.51H462.17l.09-.51H819.74l-.07.51h14v-.51ZM626.7,465.87a103.918,103.918,0,0,1,7.2,19.8,81.113,81.113,0,0,1-7.77-20.88l.15.27Zm-171.82,20q0,2.86-.1,5.77l-.24.34a49,49,0,0,1,.34-6.16Z" transform="translate(-51.45 -44.1)" fill="url(#linear-gradient)"/>
    <path id="Path_126" data-name="Path 126" d="M666.25,510.4l-20,191-107,34s-139-26-103-101c25.61-53.35,24.9-148.69,22.36-199.29-1-20.54-2.36-33.71-2.36-33.71s182-159,167-16c-2.9,27.69-3.07,49.34-1.46,66.26C628.54,522.1,666.25,510.4,666.25,510.4Z" transform="translate(-51.45 -44.1)" fill="#fdc2cc"/>
    <path id="Path_127" data-name="Path 127" d="M666.25,510.4l-20,191-107,34s-139-26-103-101c25.61-53.35,24.9-148.69,22.36-199.29-1-20.54-2.36-33.71-2.36-33.71s182-159,167-16c-2.9,27.69-3.07,49.34-1.46,66.26C628.54,522.1,666.25,510.4,666.25,510.4Z" transform="translate(-51.45 -44.1)" opacity="0.03"/>
    <path id="Path_128" data-name="Path 128" d="M623.25,382.4c-2.9,27.69-3.07,49.34-1.46,66.26a145.07,145.07,0,0,1-163.18-16.55c-1-20.54-2.36-33.71-2.36-33.71S638.25,239.4,623.25,382.4Z" transform="translate(-51.45 -44.1)" opacity="0.1"/>
    <circle id="Ellipse_35" data-name="Ellipse 35" cx="145" cy="145" r="145" transform="translate(355.8 126.31)" fill="#fdc2cc"/>
    <circle id="Ellipse_36" data-name="Ellipse 36" cx="145" cy="145" r="145" transform="translate(355.8 126.31)" opacity="0.03"/>
    <path id="Path_129" data-name="Path 129" d="M976.25,855.4h-752l-11-95c-23-153,84-176,84-176l117-54,46.5-43.5c-15,57,98.5,175.5,98.5,175.5h0a26.89,26.89,0,0,0,2.07-2.15c3.06-3.34,10.37-11.7,27.49-32.44,6.12-7.43,13.51-16.44,22.41-27.38,42.8-52.6,20.84-114.75,14.28-127.6l-.41-.8c-.25-.46-.44-.83-.59-1.09a1.626,1.626,0,0,0-.15-.27,1.6,1.6,0,0,1-.11-.2l55,43s2.11.56,6,1.66c21.4,6,96.58,28.31,166,61.34C933.25,615.4,976.25,855.4,976.25,855.4Z" transform="translate(-51.45 -44.1)" fill="#2fcf8f"/>
    <path id="Path_130" data-name="Path 130" d="M720.25,626.4c-9-9-70-20-70-20,2,24-72,61-72,61l5.5,188H548.27l-6-169,17-24h0l2.07-2.15a330.015,330.015,0,0,0,27.49-32.44c6.12-7.43,13.51-16.44,22.41-27.38,42.8-52.6,20.84-114.75,14.28-127.6l-.41-.8c-.24-.47-.43-.83-.59-1.09a1.626,1.626,0,0,0-.15-.27,1.591,1.591,0,0,1-.11-.2h0s18-4,50,30a93.742,93.742,0,0,1,11,14.66C711.26,556.85,728.18,634.33,720.25,626.4Z" transform="translate(-51.45 -44.1)" fill="#1abc7b"/>
    <path id="Path_131" data-name="Path 131" d="M720.25,626.4c-9-9-70-20-70-20,2,24-72,61-72,61l5.5,188H548.27l-6-169,17-24h0l2.07-2.15a330.015,330.015,0,0,0,27.49-32.44c6.12-7.43,13.51-16.44,22.41-27.38,42.8-52.6,20.84-114.75,14.28-127.6l-.41-.8c-.24-.47-.43-.83-.59-1.09a1.626,1.626,0,0,0-.15-.27,1.591,1.591,0,0,1-.11-.2h0s18-4,50,30a93.742,93.742,0,0,1,11,14.66C711.26,556.85,728.18,634.33,720.25,626.4Z" transform="translate(-51.45 -44.1)" opacity="0.1"/>
    <path id="Path_132" data-name="Path 132" d="M313.25,703.4s47,96,49.5,152.5" transform="translate(-51.45 -44.1)" opacity="0.1"/>
    <path id="Path_133" data-name="Path 133" d="M773.8,714.31l-13.5,97.5h13.5Z" opacity="0.1"/>
    <path id="Path_134" data-name="Path 134" d="M323.75,855.9l74.5-169.5s21-40,26-80,32-103,32-103,67-85,98-73-27,57-27,57,85,33,27,131-59,80-59,80l-28.5,157.5Z" transform="translate(-51.45 -44.1)" opacity="0.1"/>
    <path id="Path_135" data-name="Path 135" d="M321.75,855.9l74.5-169.5s21-40,26-80c3.18-25.43,15.25-60.16,23.62-82.09a125.861,125.861,0,0,1,23.72-39c21.66-24.24,61-63.33,82.66-54.93,31,12-27,57-27,57s85,33,27,131-59,80-59,80l-28.5,157.5Z" transform="translate(-51.45 -44.1)" fill="#fdc2cc"/>
    <circle id="Ellipse_37" data-name="Ellipse 37" cx="3" cy="3" r="3" transform="translate(542.3 186.81)" fill="#fff" opacity="0.15"/>
    <circle id="Ellipse_38" data-name="Ellipse 38" cx="3" cy="3" r="3" transform="translate(528.3 192.81)" fill="#fff" opacity="0.15"/>
    <path id="Path_136" data-name="Path 136" d="M449.24,132.68c14.47-4.68,30.53-3.67,44.41-9.89,18.77-8.42,30.6-28.8,50.08-35.4,8.68-2.94,18.1-2.83,27.21-1.89a161.07,161.07,0,0,1,80.66,31.87c19.31,14.69,37.43,34.72,61.64,36.29,5.85.38,11.8-.39,17.53.84,14.84,3.18,23.73,18.47,28,33a124.26,124.26,0,0,1-15.66,102.6c-5.48,8.2-12.16,16.23-13.51,26-1.32,9.58,2.76,19.51.38,28.89-2,7.77-8,13.75-13.84,19.26Q685.89,392.86,654.31,420c-10.94-34.76,5.11-72.19,2.61-108.54-1-14.16-6-29.62-18.49-36.3-11.69-6.24-26.63-3-38.46-9-13.2-6.65-18.62-22.4-28.6-33.3-17-18.6-46.51-21-70.28-12.6s-43.2,25.68-62,42.53l-34.17,30.65c-6.67-7.52-1.61-19.06,2-28.46,5.38-14.09,6.56-29.28,6.2-44.24-.29-12-4.43-23.85-4.19-35.53C409.41,162.17,427.69,139.65,449.24,132.68Z" transform="translate(-51.45 -44.1)" opacity="0.1"/>
    <path id="Path_137" data-name="Path 137" d="M449.24,129.68c14.47-4.68,30.53-3.67,44.41-9.89,18.77-8.42,30.6-28.8,50.08-35.4,8.68-2.94,18.1-2.83,27.21-1.89a161.07,161.07,0,0,1,80.66,31.87c19.31,14.69,37.43,34.72,61.64,36.29,5.85.38,11.8-.39,17.53.84,14.84,3.18,23.73,18.47,28,33a124.26,124.26,0,0,1-15.66,102.6c-5.48,8.2-12.16,16.23-13.51,26-1.32,9.58,2.76,19.51.38,28.89-2,7.77-8,13.75-13.84,19.26Q685.89,389.86,654.31,417c-10.94-34.76,5.11-72.19,2.61-108.54-1-14.16-6-29.62-18.49-36.3-11.69-6.24-26.63-3-38.46-9-13.2-6.65-18.62-22.4-28.6-33.3-17-18.6-46.51-21-70.28-12.6s-43.2,25.68-62,42.53l-34.17,30.65c-6.67-7.52-1.61-19.06,2-28.46,5.38-14.09,6.56-29.28,6.2-44.24-.29-12-4.43-23.85-4.19-35.53C409.41,159.17,427.69,136.65,449.24,129.68Z" transform="translate(-51.45 -44.1)" fill="#865a61"/>
    <text id="_" data-name="?" transform="translate(419.993 375.98)" fill="#865a61" font-size="200" font-family="OpenSans-ExtraBold, Open Sans" font-weight="800"><tspan x="0" y="0">?</tspan></text>
  </g>
</svg>
